<?xml version="1.0" standalone="no"?>
<!DOCTYPE svg PUBLIC "-//W3C//DTD SVG 20010904//EN"
 "http://www.w3.org/TR/2001/REC-SVG-20010904/DTD/svg10.dtd">
<svg version="1.0" xmlns="http://www.w3.org/2000/svg"
 width="175.000000pt" height="196.000000pt" viewBox="0 0 175.000000 196.000000"
 preserveAspectRatio="xMidYMid meet">
<metadata>
Created by potrace 1.16, written by Peter Selinger 2001-2019
</metadata>
<g transform="translate(0.000000,196.000000) scale(0.100000,-0.100000)"
fill="#000000" stroke="none">
<path d="M304 1425 c-3 -8 12 -228 33 -490 35 -411 42 -478 58 -495 18 -20 28
-20 478 -18 l460 3 18 25 c15 21 24 97 54 461 20 240 35 456 33 480 -3 39 -6
44 -30 47 -33 4 -28 30 -78 -418 -22 -201 -45 -381 -50 -401 -6 -23 -19 -40
-35 -47 -18 -9 -132 -12 -380 -12 -353 0 -354 0 -380 22 -25 23 -26 31 -70
418 -25 217 -47 405 -50 418 -6 26 -52 31 -61 7z"/>
<path d="M522 1293 l-62 -14 5 -37 c3 -20 19 -156 35 -302 27 -237 32 -267 51
-282 19 -16 50 -18 319 -18 272 0 300 2 320 18 20 17 25 42 56 298 19 153 34
288 34 300 l0 20 -87 -18 c-108 -23 -177 -19 -361 22 -146 33 -215 36 -310 13z
m622 -112 c20 -22 66 -203 66 -257 0 -22 -6 -37 -18 -43 -26 -14 -211 -56
-217 -49 -3 3 3 29 15 57 24 62 25 92 5 131 -17 33 -39 48 -104 71 -85 29 -66
46 94 84 126 29 138 29 159 6z m-342 -122 c120 -44 153 -68 142 -103 -16 -55
-77 -214 -90 -233 -8 -13 -23 -23 -33 -23 -29 0 -253 87 -263 102 -14 23 -9
54 29 154 44 118 59 144 84 144 10 0 69 -19 131 -41z"/>
</g>
</svg>
